<svg width="108" height="103" viewBox="0 0 108 103" fill="none" xmlns="http://www.w3.org/2000/svg">
<g filter="url(#filter0_d_100_29)">
<path d="M15 55.5388L41.2473 80L76.2709 71.8732L85 39.4614L58.7529 15L23.729 23.127L15 55.5388Z" stroke="#64FFDA" stroke-width="4"/>
<path d="M54.1158 71.0092L77.9313 56.5185L79 52.531L72.7819 30.1981H69.0577L75.5954 53.7308L50.5687 68.4117L54.1158 71.0092ZM30.0342 68.4117H33.9204L24.417 40.0176L48.0091 25.8261L44.5737 24L22.0685 37.2764L21 41.2638L30.0342 68.4117ZM48.0091 25.8261L44.5737 24L50.5687 68.4117L54.1158 71.0092L48.0091 25.8261Z" fill="#64FFDA"/>
</g>
<defs>
<filter id="filter0_d_100_29" x="0.755737" y="0.811157" width="106.489" height="101.378" filterUnits="userSpaceOnUse" color-interpolation-filters="sRGB">
<feFlood flood-opacity="0" result="BackgroundImageFix"/>
<feColorMatrix in="SourceAlpha" type="matrix" values="0 0 0 0 0 0 0 0 0 0 0 0 0 0 0 0 0 0 127 0" result="hardAlpha"/>
<feOffset dx="4" dy="4"/>
<feGaussianBlur stdDeviation="8"/>
<feComposite in2="hardAlpha" operator="out"/>
<feColorMatrix type="matrix" values="0 0 0 0 0 0 0 0 0 0 0 0 0 0 0 0 0 0 0.25 0"/>
<feBlend mode="normal" in2="BackgroundImageFix" result="effect1_dropShadow_100_29"/>
<feBlend mode="normal" in="SourceGraphic" in2="effect1_dropShadow_100_29" result="shape"/>
</filter>
</defs>
</svg>
